<svg width="800" height="400" viewBox="0 0 800 400" xmlns="http://www.w3.org/2000/svg"><defs><pattern id="satori_pattern_id_1" x="0" y="0" width="0.125" height="0.25" patternUnits="objectBoundingBox"><radialGradient id="satori_radial_id_1" spreadMethod="pad"><stop offset="0" stop-color="#e5e7eb"/><stop offset="0.02" stop-color="#e5e7eb"/><stop offset="0" stop-color="transparent"/><stop offset="1" stop-color="transparent"/></radialGradient><mask id="satori_mask_id_1"><rect x="0" y="0" width="100" height="100" fill="#fff"/></mask><rect x="0" y="0" width="100" height="100" fill="transparent"/><circle cx="75" cy="75" width="100" height="100" r="106.06601717798213" fill="url(#satori_radial_id_1)" mask="url(#satori_mask_id_1)"/></pattern><pattern id="satori_pattern_id_0" x="0" y="0" width="0.125" height="0.25" patternUnits="objectBoundingBox"><radialGradient id="satori_radial_id_0" spreadMethod="pad"><stop offset="0" stop-color="#e5e7eb"/><stop offset="0.02" stop-color="#e5e7eb"/><stop offset="0" stop-color="transparent"/><stop offset="1" stop-color="transparent"/></radialGradient><mask id="satori_mask_id_0"><rect x="0" y="0" width="100" height="100" fill="#fff"/></mask><rect x="0" y="0" width="100" height="100" fill="transparent"/><circle cx="25" cy="25" width="100" height="100" r="106.06601717798213" fill="url(#satori_radial_id_0)" mask="url(#satori_mask_id_0)"/></pattern></defs><mask id="satori_om-id"><rect x="0" y="0" width="800" height="400" fill="#fff"/></mask><rect x="0" y="0" width="800" height="400" fill="white"/><rect x="0" y="0" width="800" height="400" fill="url(#satori_pattern_id_1)"/><rect x="0" y="0" width="800" height="400" fill="url(#satori_pattern_id_0)"/><mask id="satori_om-id-0"><rect x="352" y="78" width="96" height="96" fill="#fff"/></mask><clipPath id="satori_cp-id-0-0"><rect x="352" y="78" width="96" height="96"/></clipPath><mask id="satori_om-id-0-0"><rect x="352" y="78" width="96" height="96" fill="#fff"/></mask><image x="352" y="78" width="96" height="96" href="data:image/svg+xml;utf8,%3Csvg  xmlns=%22http://www.w3.org/2000/svg%22 fill=%22none%22 width=%2296%22 height=%2296%22 viewBox=%220 0 64 64%22%3E%3Cpath d=%22M32 4L6 14v18c0 14.2 10.6 27.1 26 30 15.4-2.9 26-15.8 26-30V14L32 4z%22 fill=%22%23111827%22%3E%3C/path%3E%3Cpath d=%22M20 24l8 16 16-32%22 stroke=%22white%22 stroke-width=%224%22 stroke-linecap=%22round%22 stroke-linejoin=%22round%22%3E%3C/path%3E%3C/svg%3E" preserveAspectRatio="none" clip-path="url(#satori_cp-id-0-0)" mask="url(#satori_om-id-0-0)"/><mask id="satori_om-id-0-0-0"><rect x="352" y="78" width="0" height="96" fill="#fff"/></mask><mask id="satori_om-id-0-0-1"><rect x="352" y="78" width="0" height="96" fill="#fff"/></mask><mask id="satori_om-id-1"><rect x="270" y="198" width="261" height="63" fill="#fff"/></mask><g  ><path fill="#111827" d="M271.2 210.2L280.1 210.2L289.3 238.9L289.6 238.9L298.8 210.2L307.6 210.2L294.6 248L284.3 248L271.2 210.2ZM321.7 248.6L321.7 248.6Q317.3 248.6 314.2 246.8Q311.0 245.0 309.4 241.7Q307.7 238.4 307.7 233.9L307.7 233.9Q307.7 229.6 309.4 226.3Q311.0 223.0 314.1 221.1Q317.2 219.3 321.4 219.3L321.4 219.3Q324.2 219.3 326.6 220.2Q329.1 221.1 330.9 222.8Q332.7 224.6 333.7 227.3Q334.7 230.1 334.7 233.7L334.7 233.7L334.7 235.8L310.8 235.8L310.8 231.0L327.3 231.0Q327.3 229.3 326.6 227.9Q325.9 226.6 324.6 225.9Q323.3 225.1 321.5 225.1L321.5 225.1Q319.7 225.1 318.4 226.0Q317.0 226.8 316.2 228.2Q315.4 229.5 315.4 231.2L315.4 231.2L315.4 235.8Q315.4 238.0 316.2 239.5Q317.0 241.0 318.4 241.9Q319.9 242.7 321.9 242.7L321.9 242.7Q323.2 242.7 324.3 242.3Q325.3 241.9 326.1 241.2Q326.9 240.5 327.3 239.4L327.3 239.4L334.6 239.9Q334.0 242.5 332.3 244.4Q330.6 246.4 327.9 247.5Q325.2 248.6 321.7 248.6ZM347.7 248L339.9 248L339.9 219.6L347.5 219.6L347.5 224.6L347.8 224.6Q348.6 221.9 350.4 220.6Q352.2 219.2 354.6 219.2L354.6 219.2Q355.2 219.2 355.9 219.3Q356.6 219.4 357.1 219.5L357.1 219.5L357.1 226.5Q356.5 226.3 355.6 226.2Q354.6 226.1 353.8 226.1L353.8 226.1Q352.0 226.1 350.7 226.8Q349.3 227.6 348.5 228.9Q347.7 230.2 347.7 232.0L347.7 232.0L347.7 248ZM369.0 248L361.1 248L361.1 219.6L369.0 219.6L369.0 248ZM365.1 216.0L365.1 216.0Q363.3 216.0 362.1 214.8Q360.8 213.6 360.8 212.0L360.8 212.0Q360.8 210.4 362.1 209.2Q363.3 208.0 365.1 208.0L365.1 208.0Q366.8 208.0 368.1 209.2Q369.3 210.4 369.3 212.0L369.3 212.0Q369.3 213.6 368.1 214.8Q366.8 216.0 365.1 216.0ZM398.9 227.7L398.9 227.7L391.7 228.2Q391.5 227.2 390.9 226.5Q390.3 225.7 389.3 225.3Q388.3 224.8 386.9 224.8L386.9 224.8Q385.1 224.8 383.8 225.6Q382.6 226.4 382.6 227.7L382.6 227.7Q382.6 228.7 383.4 229.4Q384.2 230.1 386.2 230.5L386.2 230.5L391.3 231.5Q395.5 232.4 397.5 234.3Q399.5 236.1 399.5 239.2L399.5 239.2Q399.5 242.0 397.9 244.1Q396.3 246.2 393.4 247.4Q390.6 248.6 386.9 248.6L386.9 248.6Q381.3 248.6 377.9 246.2Q374.6 243.8 374.0 239.8L374.0 239.8L381.8 239.4Q382.1 241.1 383.5 242.0Q384.8 242.9 386.9 242.9L386.9 242.9Q389.0 242.9 390.2 242.1Q391.5 241.3 391.5 240.0L391.5 240.0Q391.5 238.9 390.6 238.2Q389.7 237.5 387.9 237.2L387.9 237.2L383.0 236.2Q378.8 235.4 376.8 233.3Q374.8 231.3 374.8 228.1L374.8 228.1Q374.8 225.4 376.3 223.4Q377.7 221.4 380.5 220.3Q383.2 219.3 386.8 219.3L386.8 219.3Q392.2 219.3 395.3 221.5Q398.4 223.8 398.9 227.7ZM417.3 248.6L417.3 248.6Q412.9 248.6 409.8 246.7Q406.7 244.8 405.0 241.5Q403.3 238.2 403.3 233.9L403.3 233.9Q403.3 229.6 405.0 226.3Q406.7 223.0 409.8 221.1Q413.0 219.3 417.3 219.3L417.3 219.3Q421.0 219.3 423.8 220.6Q426.6 222.0 428.2 224.4Q429.8 226.8 430.0 230.1L430.0 230.1L422.5 230.1Q422.2 228.0 420.9 226.7Q419.6 225.4 417.4 225.4L417.4 225.4Q415.6 225.4 414.2 226.4Q412.9 227.4 412.1 229.3Q411.3 231.1 411.3 233.8L411.3 233.8Q411.3 236.5 412.1 238.4Q412.8 240.3 414.2 241.3Q415.6 242.3 417.4 242.3L417.4 242.3Q418.7 242.3 419.8 241.8Q420.9 241.2 421.6 240.2Q422.3 239.1 422.5 237.6L422.5 237.6L430.0 237.6Q429.8 240.9 428.2 243.3Q426.6 245.8 423.9 247.2Q421.1 248.6 417.3 248.6ZM447.8 248.6L447.8 248.6Q443.5 248.6 440.4 246.7Q437.3 244.9 435.6 241.6Q433.9 238.3 433.9 233.9L433.9 233.9Q433.9 229.5 435.6 226.2Q437.3 222.9 440.4 221.1Q443.5 219.3 447.8 219.3L447.8 219.3Q452.1 219.3 455.3 221.1Q458.4 222.9 460.1 226.2Q461.8 229.5 461.8 233.9L461.8 233.9Q461.8 238.3 460.1 241.6Q458.4 244.9 455.3 246.7Q452.1 248.6 447.8 248.6ZM447.9 242.5L447.9 242.5Q449.8 242.5 451.2 241.3Q452.5 240.2 453.1 238.3Q453.8 236.3 453.8 233.9L453.8 233.9Q453.8 231.4 453.1 229.5Q452.5 227.5 451.2 226.4Q449.8 225.3 447.9 225.3L447.9 225.3Q445.9 225.3 444.6 226.4Q443.2 227.5 442.6 229.5Q441.9 231.4 441.9 233.9L441.9 233.9Q441.9 236.3 442.6 238.3Q443.2 240.2 444.6 241.3Q445.9 242.5 447.9 242.5ZM474.8 258.6L466.9 258.6L466.9 219.6L474.7 219.6L474.7 224.4L475.0 224.4Q475.6 223.3 476.6 222.1Q477.5 220.9 479.1 220.1Q480.7 219.3 483.1 219.3L483.1 219.3Q486.2 219.3 488.8 220.9Q491.5 222.5 493.0 225.7Q494.6 229.0 494.6 233.9L494.6 233.9Q494.6 238.6 493.1 241.9Q491.6 245.1 488.9 246.8Q486.3 248.5 483.1 248.5L483.1 248.5Q480.8 248.5 479.2 247.7Q477.6 246.9 476.6 245.8Q475.6 244.6 475.0 243.5L475.0 243.5L474.8 243.5L474.8 258.6ZM474.6 233.8L474.6 233.8Q474.6 236.3 475.3 238.2Q476.0 240.1 477.4 241.2Q478.7 242.2 480.6 242.2L480.6 242.2Q482.5 242.2 483.9 241.1Q485.2 240.1 485.9 238.2Q486.6 236.3 486.6 233.8L486.6 233.8Q486.6 231.4 485.9 229.5Q485.2 227.6 483.9 226.6Q482.5 225.5 480.6 225.5L480.6 225.5Q478.7 225.5 477.4 226.5Q476.0 227.6 475.3 229.4Q474.6 231.3 474.6 233.8ZM512.8 248.6L512.8 248.6Q508.4 248.6 505.2 246.8Q502.1 245.0 500.4 241.7Q498.7 238.4 498.7 233.9L498.7 233.9Q498.7 229.6 500.4 226.3Q502.1 223.0 505.2 221.1Q508.3 219.3 512.4 219.3L512.4 219.3Q515.2 219.3 517.7 220.2Q520.1 221.1 521.9 222.8Q523.7 224.6 524.8 227.3Q525.8 230.1 525.8 233.7L525.8 233.7L525.8 235.8L501.8 235.8L501.8 231.0L518.4 231.0Q518.4 229.3 517.6 227.9Q516.9 226.6 515.6 225.9Q514.3 225.1 512.6 225.1L512.6 225.1Q510.8 225.1 509.4 226.0Q508.0 226.8 507.3 228.2Q506.5 229.5 506.5 231.2L506.5 231.2L506.5 235.8Q506.5 238.0 507.2 239.5Q508.0 241.0 509.5 241.9Q510.9 242.7 512.9 242.7L512.9 242.7Q514.2 242.7 515.3 242.3Q516.4 241.9 517.1 241.2Q517.9 240.5 518.3 239.4L518.3 239.4L525.6 239.9Q525.1 242.5 523.3 244.4Q521.6 246.4 518.9 247.5Q516.3 248.6 512.8 248.6Z "/></g><mask id="satori_om-id-2"><rect x="126" y="277" width="548" height="45" fill="#fff"/></mask><g  ><path fill="#4b5563" d="M134.9 290.2L127.5 290.2L127.5 287.7L145 287.7L145 290.2L137.7 290.2L137.7 311L134.9 311L134.9 290.2ZM151.7 300.5L151.7 300.5L151.7 311L149.0 311L149.0 287.7L151.7 287.7L151.7 296.3L151.9 296.3Q152.5 294.9 153.8 294.1Q155.0 293.3 157.0 293.3L157.0 293.3Q158.8 293.3 160.2 294.0Q161.5 294.7 162.3 296.2Q163 297.7 163 299.9L163 299.9L163 311L160.3 311L160.3 300.1Q160.3 298.0 159.2 296.9Q158.2 295.7 156.3 295.7L156.3 295.7Q155.0 295.7 153.9 296.3Q152.9 296.8 152.3 297.9Q151.7 299.0 151.7 300.5ZM175.2 311.4L175.2 311.4Q172.7 311.4 170.9 310.2Q169.1 309.1 168.1 307.1Q167.1 305.1 167.1 302.4L167.1 302.4Q167.1 299.7 168.1 297.7Q169.1 295.6 170.8 294.5Q172.6 293.3 175.0 293.3L175.0 293.3Q176.3 293.3 177.6 293.8Q179.0 294.2 180.1 295.2Q181.2 296.3 181.8 297.9Q182.5 299.6 182.5 302.0L182.5 302.0L182.5 303.2L169 303.2L169 300.9L179.7 300.9Q179.7 299.4 179.1 298.2Q178.6 297.1 177.5 296.4Q176.4 295.7 175.0 295.7L175.0 295.7Q173.4 295.7 172.2 296.5Q171.0 297.3 170.4 298.6Q169.8 299.8 169.8 301.3L169.8 301.3L169.8 302.8Q169.8 304.8 170.5 306.2Q171.1 307.5 172.4 308.2Q173.6 309.0 175.2 309.0L175.2 309.0Q176.3 309.0 177.1 308.7Q178 308.4 178.6 307.7Q179.3 307.1 179.6 306.2L179.6 306.2L182.2 307.0Q181.8 308.3 180.8 309.3Q179.8 310.3 178.4 310.8Q177 311.4 175.2 311.4Z M203.8 291.4L196.9 311L193.9 311L202.5 287.7L205.4 287.7L213.9 311L211.0 311L204.0 291.4L203.8 291.4ZM198.0 304.4L198.0 301.9L209.9 301.9L209.9 304.4L198.0 304.4ZM228.2 303.9L228.2 303.9L228.2 293.5L230.9 293.5L230.9 311L228.2 311L228.2 308.0L228.0 308.0Q227.4 309.4 226.1 310.3Q224.8 311.2 222.8 311.2L222.8 311.2Q221.2 311.2 219.9 310.5Q218.6 309.8 217.9 308.3Q217.2 306.9 217.2 304.6L217.2 304.6L217.2 293.5L219.9 293.5L219.9 304.5Q219.9 306.4 220.9 307.5Q222.0 308.6 223.7 308.6L223.7 308.6Q224.7 308.6 225.7 308.1Q226.8 307.6 227.5 306.6Q228.2 305.5 228.2 303.9ZM242.4 311.4L242.4 311.4Q240.2 311.4 238.5 310.3Q236.8 309.1 235.9 307.1Q235.0 305.1 235.0 302.3L235.0 302.3Q235.0 299.6 235.9 297.5Q236.8 295.5 238.5 294.4Q240.2 293.3 242.4 293.3L242.4 293.3Q244.1 293.3 245.1 293.9Q246.1 294.4 246.6 295.2Q247.2 295.9 247.5 296.3L247.5 296.3L247.7 296.3L247.7 287.7L250.4 287.7L250.4 311L247.8 311L247.8 308.3L247.5 308.3Q247.2 308.8 246.6 309.5Q246.1 310.2 245.1 310.8Q244.0 311.4 242.4 311.4ZM242.7 309.0L242.7 309.0Q244.3 309.0 245.5 308.1Q246.6 307.3 247.1 305.8Q247.7 304.3 247.7 302.3L247.7 302.3Q247.7 300.3 247.2 298.8Q246.6 297.4 245.5 296.6Q244.4 295.7 242.7 295.7L242.7 295.7Q241.0 295.7 239.9 296.6Q238.8 297.5 238.2 298.9Q237.6 300.4 237.6 302.3L237.6 302.3Q237.6 304.1 238.2 305.7Q238.8 307.2 239.9 308.1Q241.0 309.0 242.7 309.0ZM258.3 311L255.6 311L255.6 293.5L258.3 293.5L258.3 311ZM257.0 290.6L257.0 290.6Q256.2 290.6 255.7 290.1Q255.1 289.6 255.1 288.8L255.1 288.8Q255.1 288.1 255.7 287.5Q256.2 287 257.0 287L257.0 287Q257.8 287 258.3 287.5Q258.9 288.1 258.9 288.8L258.9 288.8Q258.9 289.6 258.3 290.1Q257.8 290.6 257.0 290.6ZM261.8 293.5L270.8 293.5L270.8 295.8L261.8 295.8L261.8 293.5ZM264.4 306.7L264.4 289.4L267.1 289.4L267.1 306Q267.1 307.1 267.4 307.7Q267.8 308.3 268.3 308.4Q268.8 308.6 269.4 308.6L269.4 308.6Q269.9 308.6 270.1 308.6Q270.4 308.5 270.6 308.5L270.6 308.5L271.1 310.9Q270.9 311.0 270.4 311.1Q269.9 311.2 269.1 311.2L269.1 311.2Q268.0 311.2 266.9 310.7Q265.8 310.3 265.1 309.3Q264.4 308.3 264.4 306.7L264.4 306.7Z M290.5 311.3L290.5 311.3Q288.2 311.3 286.5 310.5Q284.8 309.6 283.9 308.2Q283.0 306.7 283.0 304.8L283.0 304.8Q283.0 303.4 283.7 302.2Q284.3 301.1 285.4 300.1Q286.5 299.2 287.9 298.2L287.9 298.2L291.3 295.7Q292.3 295.0 292.9 294.3Q293.5 293.6 293.5 292.4L293.5 292.4Q293.5 291.5 292.7 290.6Q291.9 289.8 290.6 289.8L290.6 289.8Q289.8 289.8 289.1 290.3Q288.4 290.7 288.0 291.4Q287.6 292.1 287.6 292.8L287.6 292.8Q287.6 293.6 288.1 294.5Q288.5 295.3 289.2 296.2Q289.9 297.0 290.7 298.0L290.7 298.0L301.4 311L298.1 311L289.3 300.4Q288.1 298.9 287.1 297.7Q286.1 296.5 285.5 295.3Q284.9 294.1 284.9 292.8L284.9 292.8Q284.9 291.2 285.6 290.0Q286.3 288.8 287.6 288.2Q288.8 287.5 290.5 287.5L290.5 287.5Q292.3 287.5 293.6 288.2Q294.8 288.9 295.5 290.0Q296.2 291.1 296.2 292.4L296.2 292.4Q296.2 294.0 295.4 295.3Q294.5 296.5 293.1 297.5L293.1 297.5L288.5 301Q286.9 302.2 286.3 303.3Q285.8 304.3 285.8 304.8L285.8 304.8Q285.8 305.9 286.3 306.9Q286.9 307.8 287.9 308.4Q289.0 309.0 290.4 309.0L290.4 309.0Q291.7 309.0 292.9 308.4Q294.2 307.8 295.2 306.8Q296.2 305.7 296.8 304.2Q297.4 302.7 297.4 300.8L297.4 300.8L300 300.8Q300 303.1 299.5 304.6Q298.9 306.1 298.3 306.9Q297.6 307.7 297.2 308.1L297.2 308.1Q297.0 308.3 296.9 308.5Q296.8 308.6 296.7 308.8L296.7 308.8Q295.6 310.1 293.8 310.7Q292.1 311.3 290.5 311.3Z M332.4 295L332.4 295L329.6 295Q329.3 293.8 328.7 292.9Q328.1 291.9 327.2 291.3Q326.3 290.7 325.3 290.4Q324.2 290.0 323.0 290.0L323.0 290.0Q320.9 290.0 319.2 291.1Q317.5 292.2 316.5 294.3Q315.5 296.3 315.5 299.4L315.5 299.4Q315.5 302.4 316.5 304.5Q317.5 306.5 319.2 307.6Q320.9 308.7 323.0 308.7L323.0 308.7Q324.2 308.7 325.3 308.4Q326.3 308.0 327.2 307.4Q328.1 306.8 328.7 305.9Q329.3 304.9 329.6 303.7L329.6 303.7L332.4 303.7Q332.1 305.5 331.3 306.9Q330.4 308.3 329.2 309.3Q327.9 310.3 326.4 310.8Q324.8 311.3 323.0 311.3L323.0 311.3Q320.1 311.3 317.8 309.9Q315.4 308.4 314.1 305.7Q312.8 303.0 312.8 299.4L312.8 299.4Q312.8 295.7 314.1 293Q315.4 290.3 317.8 288.9Q320.1 287.4 323.0 287.4L323.0 287.4Q324.8 287.4 326.4 287.9Q327.9 288.4 329.2 289.4Q330.4 290.4 331.3 291.8Q332.1 293.2 332.4 295ZM343.7 311.4L343.7 311.4Q341.3 311.4 339.5 310.2Q337.8 309.1 336.8 307.1Q335.8 305.1 335.8 302.4L335.8 302.4Q335.8 299.6 336.8 297.6Q337.8 295.6 339.5 294.4Q341.3 293.3 343.7 293.3L343.7 293.3Q346.0 293.3 347.8 294.4Q349.6 295.6 350.6 297.6Q351.6 299.6 351.6 302.4L351.6 302.4Q351.6 305.1 350.6 307.1Q349.6 309.1 347.8 310.2Q346.0 311.4 343.7 311.4ZM343.7 309.0L343.7 309.0Q345.5 309.0 346.6 308.0Q347.8 307.1 348.4 305.6Q348.9 304.1 348.9 302.4L348.9 302.4Q348.9 300.6 348.4 299.1Q347.8 297.6 346.6 296.7Q345.5 295.7 343.7 295.7L343.7 295.7Q341.9 295.7 340.7 296.7Q339.6 297.6 339.0 299.1Q338.5 300.6 338.5 302.4L338.5 302.4Q338.5 304.1 339.0 305.6Q339.6 307.1 340.7 308.0Q341.9 309.0 343.7 309.0ZM358.4 311L355.7 311L355.7 293.5L358.3 293.5L358.3 296.3L358.5 296.3Q359.0 294.9 360.3 294.1Q361.5 293.3 363.2 293.3L363.2 293.3Q364.9 293.3 366.1 294.1Q367.2 294.9 367.9 296.3L367.9 296.3L368.0 296.3Q368.7 294.9 370.1 294.1Q371.4 293.3 373.3 293.3L373.3 293.3Q375.6 293.3 377.1 294.8Q378.6 296.2 378.6 299.3L378.6 299.3L378.6 311L375.9 311L375.9 299.3Q375.9 297.4 374.9 296.6Q373.8 295.7 372.4 295.7L372.4 295.7Q370.5 295.7 369.5 296.8Q368.5 297.9 368.5 299.6L368.5 299.6L368.5 311L365.8 311L365.8 299.0Q365.8 297.6 364.8 296.6Q363.8 295.7 362.3 295.7L362.3 295.7Q361.3 295.7 360.4 296.3Q359.5 296.8 358.9 297.8Q358.4 298.8 358.4 300.1L358.4 300.1L358.4 311ZM386.2 317.5L383.5 317.5L383.5 293.5L386.1 293.5L386.1 296.3L386.4 296.3Q386.7 295.9 387.2 295.2Q387.8 294.4 388.8 293.9Q389.7 293.3 391.5 293.3L391.5 293.3Q393.7 293.3 395.3 294.4Q397.0 295.5 398.0 297.5Q398.9 299.6 398.9 302.3L398.9 302.3Q398.9 305.1 398.0 307.1Q397.0 309.1 395.4 310.3Q393.7 311.4 391.5 311.4L391.5 311.4Q389.8 311.4 388.8 310.8Q387.8 310.2 387.2 309.5Q386.7 308.8 386.4 308.3L386.4 308.3L386.2 308.3L386.2 317.5ZM386.1 302.3L386.1 302.3Q386.1 304.3 386.7 305.8Q387.3 307.3 388.4 308.1Q389.5 309.0 391.1 309.0L391.1 309.0Q392.8 309.0 393.9 308.1Q395.1 307.2 395.7 305.7Q396.2 304.1 396.2 302.3L396.2 302.3Q396.2 300.4 395.7 298.9Q395.1 297.5 394.0 296.6Q392.8 295.7 391.1 295.7L391.1 295.7Q389.5 295.7 388.4 296.6Q387.3 297.4 386.7 298.8Q386.1 300.3 386.1 302.3ZM403.0 287.7L405.7 287.7L405.7 311L403.0 311L403.0 287.7ZM413.3 311L410.6 311L410.6 293.5L413.3 293.5L413.3 311ZM412.0 290.6L412.0 290.6Q411.2 290.6 410.6 290.1Q410.0 289.6 410.0 288.8L410.0 288.8Q410.0 288.1 410.6 287.5Q411.2 287 412.0 287L412.0 287Q412.7 287 413.3 287.5Q413.9 288.1 413.9 288.8L413.9 288.8Q413.9 289.6 413.3 290.1Q412.7 290.6 412.0 290.6ZM423.3 311.4L423.3 311.4Q421.7 311.4 420.3 310.8Q419.0 310.1 418.2 308.9Q417.4 307.8 417.4 306.0L417.4 306.0Q417.4 304.5 418.0 303.6Q418.5 302.7 419.5 302.1Q420.5 301.6 421.7 301.3Q422.9 301.1 424.1 300.9L424.1 300.9Q425.7 300.7 426.7 300.6Q427.7 300.5 428.2 300.2Q428.6 300.0 428.6 299.3L428.6 299.3L428.6 299.2Q428.6 297.5 427.7 296.6Q426.8 295.7 425.0 295.7L425.0 295.7Q423.0 295.7 421.9 296.5Q420.9 297.4 420.4 298.3L420.4 298.3L417.9 297.4Q418.5 295.8 419.7 294.9Q420.8 294.0 422.2 293.7Q423.5 293.3 424.9 293.3L424.9 293.3Q425.7 293.3 426.8 293.5Q427.9 293.7 428.9 294.3Q430.0 294.9 430.6 296.2Q431.3 297.4 431.3 299.5L431.3 299.5L431.3 311L428.6 311L428.6 308.6L428.5 308.6Q428.2 309.2 427.6 309.9Q427.0 310.5 425.9 311.0Q424.8 311.4 423.3 311.4ZM423.7 309L423.7 309Q425.3 309 426.4 308.4Q427.5 307.8 428.1 306.8Q428.6 305.8 428.6 304.7L428.6 304.7L428.6 302.2Q428.5 302.4 427.9 302.6Q427.3 302.8 426.6 302.9Q425.8 303 425.1 303.1Q424.4 303.2 424.0 303.2L424.0 303.2Q423.0 303.4 422.1 303.7Q421.1 304.0 420.6 304.6Q420.0 305.2 420.0 306.2L420.0 306.2Q420.0 307.6 421.1 308.3Q422.1 309 423.7 309ZM438.9 300.5L438.9 300.5L438.9 311L436.2 311L436.2 293.5L438.8 293.5L438.8 296.3L439.0 296.3Q439.7 294.9 440.9 294.1Q442.2 293.3 444.1 293.3L444.1 293.3Q445.9 293.3 447.2 294.0Q448.6 294.8 449.3 296.2Q450.0 297.7 450.0 299.9L450.0 299.9L450.0 311L447.4 311L447.4 300.1Q447.4 298.0 446.3 296.9Q445.2 295.7 443.4 295.7L443.4 295.7Q442.1 295.7 441.1 296.3Q440.1 296.8 439.5 297.9Q438.9 299.0 438.9 300.5ZM462.0 311.4L462.0 311.4Q459.6 311.4 457.8 310.2Q456.0 309.0 455.1 307.0Q454.1 305.0 454.1 302.4L454.1 302.4Q454.1 299.7 455.1 297.7Q456.1 295.6 457.9 294.5Q459.6 293.3 462.0 293.3L462.0 293.3Q463.8 293.3 465.3 294Q466.8 294.7 467.7 295.9Q468.7 297.1 468.9 298.8L468.9 298.8L466.2 298.8Q465.9 297.6 464.9 296.7Q463.8 295.7 462.0 295.7L462.0 295.7Q460.5 295.7 459.3 296.5Q458.1 297.4 457.5 298.8Q456.8 300.3 456.8 302.3L456.8 302.3Q456.8 304.3 457.5 305.8Q458.1 307.3 459.3 308.1Q460.5 309.0 462.0 309.0L462.0 309.0Q463.1 309.0 463.9 308.6Q464.8 308.2 465.4 307.5Q466.0 306.9 466.2 305.9L466.2 305.9L468.9 305.9Q468.7 307.5 467.8 308.7Q466.9 309.9 465.4 310.6Q464.0 311.4 462.0 311.4ZM480.1 311.4L480.1 311.4Q477.6 311.4 475.8 310.2Q474.0 309.1 473.0 307.1Q472.0 305.1 472.0 302.4L472.0 302.4Q472.0 299.7 473.0 297.7Q474.0 295.6 475.7 294.5Q477.5 293.3 479.9 293.3L479.9 293.3Q481.2 293.3 482.6 293.8Q483.9 294.2 485.0 295.2Q486.1 296.3 486.7 297.9Q487.4 299.6 487.4 302.0L487.4 302.0L487.4 303.2L473.9 303.2L473.9 300.9L484.6 300.9Q484.6 299.4 484.1 298.2Q483.5 297.1 482.4 296.4Q481.3 295.7 479.9 295.7L479.9 295.7Q478.3 295.7 477.1 296.5Q475.9 297.3 475.3 298.6Q474.7 299.8 474.7 301.3L474.7 301.3L474.7 302.8Q474.7 304.8 475.4 306.2Q476.1 307.5 477.3 308.2Q478.5 309.0 480.1 309.0L480.1 309.0Q481.2 309.0 482.1 308.7Q482.9 308.4 483.5 307.7Q484.2 307.1 484.5 306.2L484.5 306.2L487.1 307.0Q486.7 308.3 485.7 309.3Q484.7 310.3 483.3 310.8Q481.9 311.4 480.1 311.4Z M514.5 311L500.8 311L500.8 287.7L503.6 287.7L503.6 308.5L514.5 308.5L514.5 311ZM523.6 311.4L523.6 311.4Q521.9 311.4 520.6 310.8Q519.2 310.1 518.4 308.9Q517.6 307.8 517.6 306.0L517.6 306.0Q517.6 304.5 518.2 303.6Q518.8 302.7 519.8 302.1Q520.8 301.6 522.0 301.3Q523.2 301.1 524.4 300.9L524.4 300.9Q526.0 300.7 527.0 300.6Q528.0 300.5 528.4 300.2Q528.9 300.0 528.9 299.3L528.9 299.3L528.9 299.2Q528.9 297.5 528.0 296.6Q527.1 295.7 525.2 295.7L525.2 295.7Q523.3 295.7 522.2 296.5Q521.1 297.4 520.7 298.3L520.7 298.3L518.1 297.4Q518.8 295.8 520.0 294.9Q521.1 294.0 522.5 293.7Q523.8 293.3 525.1 293.3L525.1 293.3Q526.0 293.3 527.1 293.5Q528.2 293.7 529.2 294.3Q530.2 294.9 530.9 296.2Q531.6 297.4 531.6 299.5L531.6 299.5L531.6 311L528.9 311L528.9 308.6L528.8 308.6Q528.5 309.2 527.9 309.9Q527.2 310.5 526.2 311.0Q525.1 311.4 523.6 311.4ZM524.0 309L524.0 309Q525.6 309 526.7 308.4Q527.8 307.8 528.3 306.8Q528.9 305.8 528.9 304.7L528.9 304.7L528.9 302.2Q528.7 302.4 528.2 302.6Q527.6 302.8 526.8 302.9Q526.1 303 525.4 303.1Q524.7 303.2 524.3 303.2L524.3 303.2Q523.2 303.4 522.3 303.7Q521.4 304.0 520.9 304.6Q520.3 305.2 520.3 306.2L520.3 306.2Q520.3 307.6 521.4 308.3Q522.4 309 524.0 309ZM537.6 317.5L537.6 317.5Q536.9 317.5 536.4 317.4Q535.8 317.3 535.6 317.2L535.6 317.2L536.3 314.9Q537.3 315.1 538.0 315.0Q538.8 315.0 539.4 314.4Q540.0 313.8 540.5 312.5L540.5 312.5L541.0 311.1L534.5 293.5L537.4 293.5L542.2 307.5L542.4 307.5L547.2 293.5L550.1 293.5L542.7 313.5Q542.2 314.9 541.5 315.8Q540.8 316.7 539.8 317.1Q538.8 317.5 537.6 317.5ZM560.4 311.4L560.4 311.4Q557.8 311.4 556.0 310.2Q554.2 309.1 553.2 307.1Q552.2 305.1 552.2 302.4L552.2 302.4Q552.2 299.7 553.2 297.7Q554.2 295.6 556.0 294.5Q557.7 293.3 560.1 293.3L560.1 293.3Q561.5 293.3 562.8 293.8Q564.1 294.2 565.2 295.2Q566.3 296.3 566.9 297.9Q567.6 299.6 567.6 302.0L567.6 302.0L567.6 303.2L554.1 303.2L554.1 300.9L564.9 300.9Q564.9 299.4 564.3 298.2Q563.7 297.1 562.6 296.4Q561.5 295.7 560.1 295.7L560.1 295.7Q558.5 295.7 557.3 296.5Q556.2 297.3 555.5 298.6Q554.9 299.8 554.9 301.3L554.9 301.3L554.9 302.8Q554.9 304.8 555.6 306.2Q556.3 307.5 557.5 308.2Q558.7 309.0 560.4 309.0L560.4 309.0Q561.4 309.0 562.3 308.7Q563.1 308.4 563.8 307.7Q564.4 307.1 564.7 306.2L564.7 306.2L567.3 307.0Q566.9 308.3 565.9 309.3Q565.0 310.3 563.6 310.8Q562.1 311.4 560.4 311.4ZM574.4 311L571.7 311L571.7 293.5L574.3 293.5L574.3 296.2L574.5 296.2Q574.9 294.9 576.2 294.1Q577.4 293.3 579.0 293.3L579.0 293.3Q579.3 293.3 579.7 293.3Q580.2 293.3 580.4 293.3L580.4 293.3L580.4 296.0Q580.3 296.0 579.8 295.9Q579.3 295.9 578.8 295.9L578.8 295.9Q577.5 295.9 576.5 296.4Q575.5 296.9 574.9 297.8Q574.4 298.8 574.4 300.0L574.4 300.0L574.4 311Z M592.2 293.5L601.6 293.5L601.6 295.8L592.2 295.8L592.2 293.5ZM597.7 311L595.0 311L595.0 291.1Q595.0 289.6 595.8 288.6Q596.5 287.6 597.6 287.1Q598.7 286.6 600.0 286.6L600.0 286.6Q600.9 286.6 601.6 286.8Q602.2 287.0 602.5 287.1L602.5 287.1L601.7 289.4Q601.5 289.3 601.2 289.2Q600.8 289.1 600.2 289.1L600.2 289.1Q598.9 289.1 598.3 289.8Q597.7 290.5 597.7 291.8L597.7 291.8L597.7 311ZM611.8 311.4L611.8 311.4Q609.4 311.4 607.6 310.2Q605.9 309.1 604.9 307.1Q603.9 305.1 603.9 302.4L603.9 302.4Q603.9 299.6 604.9 297.6Q605.9 295.6 607.6 294.4Q609.4 293.3 611.8 293.3L611.8 293.3Q614.1 293.3 615.9 294.4Q617.7 295.6 618.7 297.6Q619.7 299.6 619.7 302.4L619.7 302.4Q619.7 305.1 618.7 307.1Q617.7 309.1 615.9 310.2Q614.1 311.4 611.8 311.4ZM611.8 309.0L611.8 309.0Q613.6 309.0 614.7 308.0Q615.9 307.1 616.4 305.6Q617 304.1 617 302.4L617 302.4Q617 300.6 616.4 299.1Q615.9 297.6 614.7 296.7Q613.6 295.7 611.8 295.7L611.8 295.7Q610.0 295.7 608.8 296.7Q607.7 297.6 607.1 299.1Q606.5 300.6 606.5 302.4L606.5 302.4Q606.5 304.1 607.1 305.6Q607.7 307.1 608.8 308.0Q610.0 309.0 611.8 309.0ZM626.5 311L623.8 311L623.8 293.5L626.4 293.5L626.4 296.2L626.5 296.2Q627.0 294.9 628.3 294.1Q629.5 293.3 631.1 293.3L631.1 293.3Q631.4 293.3 631.8 293.3Q632.3 293.3 632.5 293.3L632.5 293.3L632.5 296.0Q632.4 296.0 631.9 295.9Q631.4 295.9 630.9 295.9L630.9 295.9Q629.6 295.9 628.6 296.4Q627.6 296.9 627.0 297.8Q626.5 298.8 626.5 300.0L626.5 300.0L626.5 311Z M653.7 291.4L646.7 311L643.8 311L652.3 287.7L655.2 287.7L663.8 311L660.8 311L653.9 291.4L653.7 291.4ZM647.8 304.4L647.8 301.9L659.7 301.9L659.7 304.4L647.8 304.4ZM667.4 287.7L670.2 287.7L670.2 311L667.4 311L667.4 287.7Z "/></g></svg>